<svg width="57" height="37" viewBox="0 0 57 37" fill="none" xmlns="http://www.w3.org/2000/svg">
<g clip-path="url(#clip0_635_507)">
<path fill-rule="evenodd" clip-rule="evenodd" d="M28.8597 26.0793C24.3797 26.1393 19.8397 25.6593 15.5797 24.4293C13.3697 23.7893 11.2597 22.9593 9.33974 21.8593C7.43974 20.7593 5.74974 19.3593 4.74974 17.7393C4.25974 16.9293 3.96974 16.0593 3.89974 15.1993C3.84974 14.3093 4.00974 13.3993 4.38974 12.5393C4.76974 11.6693 5.35974 10.8193 6.10974 10.0693C6.82974 9.27932 7.67974 8.57932 8.59974 7.94932C10.4597 6.68932 12.5697 5.68932 14.7597 4.89932C16.9697 4.09932 19.2597 3.52932 21.5897 3.12932C26.2497 2.30932 31.0797 2.14932 35.8197 2.61932C38.1897 2.86932 40.5597 3.28932 42.8497 3.91932C45.1397 4.53932 47.3897 5.37932 49.4597 6.50932C51.5197 7.64932 53.4697 9.06932 54.7697 10.9893C55.4197 11.9293 55.8897 12.9893 56.0597 14.1193C56.2397 15.2393 56.1097 16.4093 55.7097 17.4993C55.3197 18.5893 54.6897 19.5993 53.9097 20.4893C53.1297 21.3893 52.2297 22.1893 51.2497 22.8993C49.2997 24.3093 47.0897 25.3993 44.8197 26.2493C47.1297 25.5093 49.3997 24.5293 51.4397 23.1793C52.4697 22.4993 53.4397 21.7293 54.2897 20.8493C55.1397 19.9493 55.8597 18.9193 56.3497 17.7593C56.8397 16.6093 57.0497 15.2993 56.9097 14.0193C56.7897 12.7593 56.3197 11.5293 55.6397 10.4393C54.9797 9.35932 54.1097 8.39932 53.1897 7.56932C52.2397 6.72932 51.2197 5.99932 50.1497 5.34932C48.0097 4.04932 45.7097 3.06932 43.3397 2.31932C40.9697 1.52932 38.5297 0.999322 36.0697 0.609322C31.1597 -0.110678 26.1297 -0.170678 21.1697 0.449322C18.6897 0.779322 16.2197 1.25932 13.7897 2.00932C11.3697 2.76932 8.97974 3.74932 6.74974 5.10932C5.62974 5.81932 4.53974 6.60932 3.54974 7.56932C2.56974 8.50932 1.66974 9.63932 0.99974 10.9593C0.33974 12.2493 -0.0302598 13.7893 -0.000259779 15.3493C0.0397402 16.9093 0.50974 18.4193 1.20974 19.7293C1.91974 21.0493 2.81974 22.1493 3.82974 23.1193C4.82974 24.0793 5.90974 24.9093 7.02974 25.6393C9.28974 27.0693 11.6997 28.1293 14.1497 28.9593C18.9197 30.5793 23.8897 31.3393 28.8697 31.4993V36.0993L41.6797 28.6893L28.8497 21.2993V26.0693L28.8597 26.0793ZM36.4997 10.1493V7.97932H44.5597V9.68932C43.8897 10.3393 43.2297 11.2793 42.5397 12.4893C41.8497 13.7193 41.3297 15.0193 40.9697 16.3893C40.5997 17.7593 40.4197 18.9993 40.4197 20.0693H38.1597C38.2097 18.3693 38.5597 16.6293 39.2097 14.8893C39.8797 13.1093 40.7597 11.5293 41.8697 10.1293H36.4997V10.1493ZM30.9897 20.3193L34.0397 7.62932H35.8197L32.7497 20.3193H30.9997H30.9897ZM26.8397 20.0893V17.6293H21.8297V15.5693L27.1397 7.77932H29.1097V15.5693H30.6297V17.6293H29.1097V20.0893H26.8297H26.8397ZM26.8397 15.5793V11.3793L24.0397 15.5793H26.8397ZM20.6597 17.9193V20.0793H12.4197C12.5097 19.2493 12.7597 18.4693 13.2097 17.7293C13.6697 16.9893 14.5497 16.0093 15.8597 14.7893C16.9197 13.8193 17.5697 13.1193 17.8097 12.7893C18.1397 12.2993 18.2897 11.8393 18.2897 11.3293C18.2897 10.8193 18.1497 10.4093 17.8597 10.1293C17.5897 9.85932 17.1897 9.70932 16.6997 9.70932C16.2097 9.70932 15.8197 9.85932 15.5297 10.1493C15.2397 10.4493 15.0797 10.9493 15.0497 11.6393L12.6897 11.4093C12.8397 10.1093 13.2697 9.18932 13.9897 8.61932C14.7297 8.03932 15.6597 7.77932 16.7597 7.77932C17.9697 7.77932 18.9297 8.09932 19.6197 8.74932C20.3097 9.38932 20.6697 10.2093 20.6697 11.1893C20.6697 11.7493 20.5697 12.2793 20.3597 12.7793C20.1597 13.2593 19.8497 13.7893 19.4197 14.3493C19.1297 14.7093 18.6297 15.2293 17.8897 15.8993C17.1297 16.5893 16.6597 17.0393 16.4797 17.2693C16.2697 17.4893 16.1197 17.6993 15.9897 17.9193H20.6697H20.6597Z" fill="black"/>
</g>
<defs>
<clipPath id="clip0_635_507">
<rect width="56.97" height="36.1" fill="white"/>
</clipPath>
</defs>
</svg>
