<svg width="52" height="32" viewBox="0 0 52 32" fill="none" xmlns="http://www.w3.org/2000/svg">
<g clip-path="url(#clip0_635_501)">
<path fill-rule="evenodd" clip-rule="evenodd" d="M11.8302 23.9298C11.7802 22.1298 10.2602 20.6398 8.4702 20.6598C6.7002 20.7098 5.0402 22.0698 5.0902 23.9298C5.1302 25.7298 6.6402 27.2198 8.4702 27.1698C10.2602 27.1398 11.7802 25.7698 11.8302 23.9298ZM40.5302 15.1298C38.1102 15.5798 35.8302 16.9298 34.5402 19.0998C34.0102 19.9898 33.6502 20.9298 33.4902 21.9698C33.4102 22.3598 33.3302 22.8898 33.3102 23.3798C38.2702 36.0298 54.2302 33.5798 51.2902 21.5298C49.7702 17.3998 44.8502 14.3498 40.5402 15.1298H40.5302ZM36.1702 23.9298C36.2802 20.2198 39.3802 17.1198 43.1102 17.1898C46.7302 17.2398 50.1302 20.1198 50.0502 23.9298C49.9702 27.6098 46.8702 30.7298 43.1102 30.6598C39.3802 30.5798 36.2702 27.7398 36.1702 23.9298ZM46.2402 23.9298C46.2202 22.2698 44.8102 20.8798 43.1102 20.8998C41.4402 20.9598 40.0302 22.2098 40.0102 23.9298C40.0302 25.5998 41.4402 26.9798 43.1102 26.9198C44.7502 26.9098 46.2902 25.6398 46.2402 23.9298ZM34.1102 13.8398H17.0202C16.5702 13.8398 16.1102 13.3498 16.3102 12.9098C16.6302 12.0798 16.1802 6.77982 19.8102 6.77982H31.1402C31.2702 6.71982 31.4602 6.74982 31.6302 6.81982C31.6302 6.84982 31.6502 6.84982 31.6802 6.84982L31.7002 6.86982C34.0302 8.61982 36.5302 13.8298 34.1002 13.8298L34.1102 13.8398ZM47.7402 15.6298C43.4602 10.7698 39.5702 5.50982 35.6302 0.36982C34.1602 -0.13018 32.2102 -0.26018 31.0002 0.90982C29.8802 2.02982 30.0102 3.72982 28.9402 4.89982C28.1602 5.70982 26.5702 5.44982 25.5902 5.44982C24.3802 5.41982 22.9702 5.67982 22.0902 4.74982C21.0202 3.60982 21.2802 1.82982 20.0002 0.78982C18.7802 -0.23018 16.9502 -0.11018 15.5402 0.36982C12.4602 4.35982 9.3802 8.34982 6.2002 12.2698C5.3102 13.3898 4.3402 14.4598 3.4302 15.5798C5.8902 14.0998 8.8102 13.4198 11.4902 13.9598C14.2602 14.5698 16.8302 16.2798 18.2402 18.7598C18.5802 19.3898 18.8402 20.0198 19.0302 20.6598C19.8902 19.4898 31.7902 20.1998 32.1102 20.6398C32.3202 19.9098 32.6302 19.1998 33.0402 18.5498C34.5602 16.1498 37.0902 14.3498 39.9302 13.9298C42.5702 13.5198 45.3902 14.1998 47.7402 15.6298ZM18.0702 21.7398C17.8802 20.7098 17.4902 19.7498 16.9202 18.8898C15.5102 16.8298 13.2202 15.3398 10.7102 15.0898C6.5602 14.6898 2.0202 17.2998 0.400196 21.2098C-2.7298 32.8498 13.1902 36.5898 18.3002 23.4098C18.2702 22.8098 18.1602 22.2098 18.0702 21.7498V21.7398ZM8.4702 17.1898C12.2002 17.2398 15.3002 20.1198 15.4002 23.9298C15.3302 27.6098 12.2002 30.7298 8.4702 30.6598C4.8402 30.5798 1.4502 27.7398 1.5302 23.9298C1.6002 20.2198 4.7102 17.1198 8.4702 17.1898Z" fill="black"/>
</g>
<defs>
<clipPath id="clip0_635_501">
<rect width="51.64" height="31.79" fill="white"/>
</clipPath>
</defs>
</svg>
