<svg width="48" height="37" viewBox="0 0 48 37" fill="none" xmlns="http://www.w3.org/2000/svg">
<g clip-path="url(#clip0_635_510)">
<path fill-rule="evenodd" clip-rule="evenodd" d="M31.9 14.23C31.9 13.32 31.16 12.58 30.25 12.58H18.23V15.86H30.25C31.16 15.86 31.9 15.12 31.9 14.23ZM10.25 13.44V12.75C10.03 12.7 9.89 12.61 9.76 12.48C9.67 12.34 9.62 12.2 9.62 12.03C9.62 11.84 9.69 11.69 9.79 11.57C9.91 11.45 10.06 11.37 10.25 11.35V11.2H10.49V11.35C10.66 11.37 10.8 11.45 10.89 11.53C10.99 11.63 11.06 11.75 11.08 11.92L10.67 11.97C10.65 11.85 10.57 11.75 10.48 11.71V12.37C10.74 12.44 10.9 12.54 11.01 12.63C11.11 12.76 11.15 12.9 11.15 13.09C11.15 13.28 11.11 13.45 10.98 13.57C10.87 13.71 10.69 13.78 10.48 13.84V14.15H10.24V13.84C10.04 13.81 9.9 13.74 9.78 13.62C9.67 13.51 9.59 13.34 9.55 13.15L9.98 13.1C10 13.17 10.02 13.24 10.07 13.32C10.12 13.39 10.17 13.42 10.25 13.46V13.44ZM10.25 11.71C10.17 11.74 10.12 11.78 10.1 11.84C10.05 11.89 10.02 11.93 10.02 12C10.02 12.05 10.05 12.13 10.07 12.17C10.12 12.22 10.17 12.24 10.25 12.29V11.71ZM10.49 13.47C10.56 13.44 10.63 13.4 10.68 13.35C10.74 13.28 10.75 13.2 10.75 13.13C10.75 13.06 10.74 12.98 10.7 12.94C10.66 12.89 10.58 12.85 10.49 12.82V13.47ZM12.14 13.44V12.75C11.93 12.7 11.76 12.61 11.67 12.48C11.57 12.34 11.53 12.2 11.53 12.03C11.53 11.84 11.58 11.69 11.7 11.57C11.82 11.45 11.97 11.37 12.15 11.35V11.2H12.39V11.35C12.56 11.37 12.7 11.45 12.8 11.53C12.9 11.63 12.97 11.75 13 11.92L12.59 11.97C12.56 11.85 12.49 11.75 12.39 11.71V12.37C12.66 12.44 12.82 12.54 12.92 12.63C13.01 12.76 13.07 12.9 13.07 13.09C13.07 13.28 13.01 13.45 12.9 13.57C12.77 13.71 12.61 13.78 12.4 13.84V14.15H12.16V13.84C11.98 13.81 11.83 13.74 11.71 13.62C11.59 13.51 11.52 13.34 11.47 13.15L11.91 13.1C11.93 13.17 11.95 13.24 12 13.32C12.05 13.39 12.1 13.42 12.17 13.46L12.14 13.44ZM12.14 11.71C12.07 11.74 12.02 11.78 11.97 11.84C11.95 11.89 11.92 11.93 11.92 12C11.92 12.05 11.95 12.13 11.97 12.17C12.02 12.22 12.07 12.24 12.14 12.29V11.71ZM12.39 13.47C12.46 13.44 12.53 13.4 12.59 13.35C12.63 13.28 12.66 13.2 12.66 13.13C12.66 13.06 12.63 12.98 12.61 12.94C12.56 12.89 12.49 12.85 12.39 12.82V13.47ZM8.36 13.44V12.75C8.15 12.7 7.99 12.61 7.9 12.48C7.77 12.34 7.73 12.2 7.73 12.03C7.73 11.84 7.81 11.69 7.9 11.57C8.02 11.45 8.16 11.37 8.36 11.35V11.2H8.59V11.35C8.76 11.37 8.91 11.45 9 11.53C9.12 11.63 9.17 11.75 9.22 11.92L8.79 11.97C8.76 11.85 8.69 11.75 8.59 11.71V12.37C8.86 12.44 9.03 12.54 9.12 12.63C9.22 12.76 9.26 12.9 9.26 13.09C9.26 13.28 9.21 13.45 9.09 13.57C8.97 13.71 8.81 13.78 8.58 13.84V14.15H8.35V13.84C8.16 13.81 8.02 13.74 7.89 13.62C7.76 13.51 7.7 13.34 7.67 13.15L8.09 13.1C8.11 13.17 8.14 13.24 8.18 13.32C8.23 13.39 8.3 13.42 8.35 13.46L8.36 13.44ZM8.36 11.71C8.28 11.74 8.24 11.78 8.22 11.84C8.17 11.89 8.15 11.93 8.15 12C8.15 12.05 8.17 12.13 8.19 12.17C8.24 12.22 8.28 12.24 8.36 12.29V11.71ZM8.59 13.47C8.67 13.44 8.74 13.4 8.79 13.35C8.83 13.28 8.89 13.2 8.89 13.13C8.89 13.06 8.86 12.98 8.82 12.94C8.77 12.89 8.69 12.85 8.6 12.82V13.47H8.59ZM15.05 7.66H0.93C0.4 7.66 0 8.07 0 8.62V30.71C0 31.23 0.43 31.66 0.93 31.66H15.07C15.6 31.66 16.04 31.23 16.04 30.71V8.62C16.04 8.09 15.6 7.66 15.05 7.66ZM2.41 10.73H13.59V14.4H2.35V10.73H2.4H2.41ZM1.58 9.62C1.58 9.41 1.75 9.24 1.96 9.24H13.96C14.18 9.24 14.35 9.41 14.35 9.62V15.26C14.35 15.48 14.18 15.65 13.96 15.65H1.97C1.75 15.65 1.59 15.48 1.59 15.26V9.62H1.58ZM14.38 17.64V20.06C14.38 20.28 14.21 20.44 13.99 20.44H11.57C11.35 20.44 11.19 20.27 11.19 20.06V17.61C11.19 17.42 11.36 17.22 11.57 17.22H13.99C14.21 17.25 14.38 17.41 14.38 17.63V17.64ZM4.77 29.66C4.77 29.88 4.6 30.04 4.4 30.04H1.97C1.75 30.04 1.59 29.87 1.59 29.66V27.24C1.59 27.02 1.76 26.83 1.97 26.83H4.4C4.61 26.83 4.77 27.02 4.77 27.24V29.66ZM4.77 24.87C4.77 25.08 4.6 25.25 4.4 25.25H1.97C1.75 25.25 1.59 25.08 1.59 24.87V22.45C1.59 22.23 1.76 22.04 1.97 22.04H4.4C4.61 22.04 4.77 22.23 4.77 22.45V24.87ZM4.77 20.07C4.77 20.29 4.6 20.45 4.4 20.45H1.97C1.75 20.45 1.59 20.28 1.59 20.07V17.65C1.59 17.43 1.76 17.27 1.97 17.27H4.4C4.61 17.27 4.77 17.44 4.77 17.65V20.07ZM9.58 29.66C9.58 29.88 9.41 30.04 9.2 30.04H6.77C6.55 30.04 6.38 29.87 6.38 29.66V27.24C6.38 27.02 6.56 26.83 6.77 26.83H9.2C9.42 26.83 9.58 27.02 9.58 27.24V29.66ZM9.58 24.87C9.58 25.08 9.41 25.25 9.2 25.25H6.77C6.55 25.25 6.38 25.08 6.38 24.87V22.45C6.38 22.23 6.56 22.04 6.77 22.04H9.2C9.42 22.04 9.58 22.23 9.58 22.45V24.87ZM9.58 20.07C9.58 20.29 9.41 20.45 9.2 20.45H6.77C6.55 20.45 6.38 20.28 6.38 20.07V17.65C6.38 17.43 6.56 17.27 6.77 17.27H9.2C9.42 17.27 9.58 17.44 9.58 17.65V20.07ZM11.19 22.44C11.19 22.22 11.36 22.06 11.57 22.06H13.99C14.21 22.06 14.38 22.23 14.38 22.44V24.86C14.38 25.07 14.21 25.24 13.99 25.24H11.57C11.35 25.24 11.19 25.07 11.19 24.86V22.44ZM14.39 29.66C14.39 29.88 14.21 30.04 13.99 30.04H11.57C11.35 30.04 11.19 29.87 11.19 29.66V27.24C11.19 27.02 11.36 26.83 11.57 26.83H13.99C14.21 26.83 14.39 27.02 14.39 27.24V29.66ZM17.69 0H11.79C10.88 0 10.15 0.74 10.15 1.66V5.45H13.42V3.29H34.76V9.77L38.05 4.08V1.63C38.05 0.74 37.3 0 36.42 0H17.69ZM10.21 32.81L10.15 34.47C10.15 35.39 10.88 36.1 11.79 36.1H36.42C37.3 36.1 38.05 35.38 38.05 34.47V25.42L34.83 27.28L34.76 32.82C26.58 32.82 18.39 32.8 10.21 32.82V32.81ZM18.22 28.83C20.91 25.34 23.09 22.48 18.22 28.83V28.83ZM25.76 27.53C25.69 27.8 25.79 28.08 25.98 28.25C26.19 28.45 26.48 28.49 26.75 28.37L32.46 25.9L27.37 21.51L25.77 27.53H25.76ZM27.94 20.83L33.03 25.2L43.4 13.15L38.32 8.78L27.95 20.83H27.94ZM39.96 6.84L45.07 11.21L43.87 12.61L38.75 8.24L39.95 6.85L39.96 6.84ZM46.99 6.75L44.09 4.28C43.5 3.75 42.58 3.82 42.06 4.42L40.43 6.32L45.52 10.71L47.16 8.81C47.42 8.51 47.54 8.14 47.52 7.73C47.47 7.37 47.3 7.01 47.01 6.75H46.99ZM30.24 6.43H17.95C17.76 6.43 17.59 6.45 17.43 6.51C17.91 7.08 18.22 7.81 18.22 8.62V9.73H30.24C31.15 9.73 31.89 8.98 31.89 8.07C31.89 7.16 31.15 6.44 30.24 6.44V6.43Z" fill="black"/>
</g>
<defs>
<clipPath id="clip0_635_510">
<rect width="47.51" height="36.1" fill="white"/>
</clipPath>
</defs>
</svg>
