<svg width="25" height="28" viewBox="0 0 25 28" fill="none" xmlns="http://www.w3.org/2000/svg">
<g clip-path="url(#clip0_648_694)">
<path fill-rule="evenodd" clip-rule="evenodd" d="M5.32 4.56H6.84C7.25 4.56 7.6 4.23 7.6 3.81V0.76C7.6 0.34 7.26 0 6.84 0H5.32C4.89 0 4.56 0.34 4.56 0.76V3.81C4.56 4.23 4.89 4.56 5.32 4.56ZM11.67 18.06C11.53 18.04 11.4 18.08 11.32 18.19C11.25 18.3 11.25 18.45 11.31 18.57L12.82 21.15L14.63 18.48L11.68 18.05L11.67 18.06ZM14.98 18.72L13.17 21.4L19.48 25.68L21.3 23.01L14.98 18.72ZM22.32 23.7L20.5 26.37L19.77 25.88L21.58 23.21L22.32 23.7ZM22.74 27.05L23.77 25.54C23.98 25.22 23.9 24.79 23.58 24.57L22.59 23.89L20.77 26.56L21.76 27.24C21.92 27.35 22.11 27.39 22.3 27.35C22.47 27.31 22.64 27.22 22.74 27.06V27.05ZM5.92 9.78C7.19 9.78 8.21 10.8 8.21 12.07C8.21 13.34 7.19 14.36 5.92 14.36C4.65 14.36 3.63 13.34 3.63 12.07C3.63 10.8 4.65 9.78 5.92 9.78ZM12.51 9.78C13.78 9.78 14.81 10.8 14.81 12.07C14.81 13.34 13.78 14.36 12.51 14.36C11.24 14.36 10.22 13.34 10.22 12.07C10.22 10.8 11.25 9.78 12.51 9.78ZM19.1 9.78C20.36 9.78 21.38 10.8 21.38 12.07C21.38 13.34 20.36 14.36 19.1 14.36C17.84 14.36 16.8 13.34 16.8 12.07C16.8 10.8 17.83 9.78 19.1 9.78ZM5.92 15.7C7.19 15.7 8.21 16.72 8.21 17.99C8.21 19.26 7.19 20.28 5.92 20.28C4.65 20.28 3.63 19.26 3.63 17.99C3.63 16.72 4.65 15.7 5.92 15.7ZM12.51 15.7C13.65 15.7 14.59 16.52 14.77 17.61L14.71 17.68L11.79 17.25C11.35 17.19 10.9 17.38 10.66 17.75C10.42 18.11 10.4 18.58 10.62 18.96L11.07 19.77C10.56 19.35 10.22 18.7 10.22 17.99C10.22 16.72 11.25 15.7 12.51 15.7ZM19.1 15.7C20.36 15.7 21.38 16.72 21.38 17.99C21.38 19.26 20.36 20.28 19.1 20.28C18.94 20.28 18.78 20.27 18.63 20.23L17.18 19.25C16.95 18.89 16.8 18.46 16.8 17.99C16.8 16.72 17.83 15.7 19.1 15.7ZM24.34 6.09V21.31C24.34 22.16 24 22.93 23.43 23.49L22.37 22.78L22.2 22.66L22.12 22.6C22.54 22.33 22.82 21.86 22.82 21.32V9.15C22.82 6.22 5.71 7.63 3.04 7.63C2.21 7.63 1.51 8.31 1.51 9.15V21.32C1.51 22.16 2.2 22.85 3.04 22.85H13.84L16.08 24.37H3.04C1.35 24.37 0 23.01 0 21.32V6.09C0 4.41 1.35 3.05 3.04 3.05H3.8V3.81C3.8 4.65 4.48 5.32 5.32 5.32H6.84C7.67 5.32 8.36 4.65 8.36 3.81V3.05H15.96V3.81C15.96 4.65 16.65 5.32 17.48 5.32H19C19.84 5.32 20.53 4.65 20.53 3.81V3.05H21.28C22.97 3.05 24.33 4.4 24.33 6.09H24.34ZM17.49 4.56H19.01C19.43 4.56 19.78 4.23 19.78 3.81V0.76C19.78 0.34 19.43 0 19.01 0H17.49C17.07 0 16.73 0.34 16.73 0.76V3.81C16.73 4.23 17.07 4.56 17.49 4.56Z" fill="black"/>
</g>
<defs>
<clipPath id="clip0_648_694">
<rect width="24.34" height="27.36" fill="white"/>
</clipPath>
</defs>
</svg>
