<svg width="26" height="20" viewBox="0 0 26 20" fill="none" xmlns="http://www.w3.org/2000/svg">
<g clip-path="url(#clip0_648_703)">
<path fill-rule="evenodd" clip-rule="evenodd" d="M1.23978 2.52988L20.1798 -0.00012214C20.9498 -0.0901221 21.6798 0.459878 21.7898 1.22988L22.2898 4.97988H5.31978C4.09978 4.97988 3.10978 5.96988 3.10978 7.17988V16.4599H3.07978C2.30978 16.5699 1.58978 16.0199 1.48978 15.2299L0.00978401 4.13988C-0.090216 3.36988 0.459784 2.62988 1.23978 2.52988ZM5.31978 5.76988H24.4298C25.2098 5.76988 25.8498 6.40988 25.8498 7.18988V15.0199H3.87978V7.18988C3.87978 6.40988 4.51978 5.76988 5.31978 5.76988ZM25.8498 17.2699V18.3999C25.8498 19.1899 25.2098 19.8299 24.4298 19.8299H5.31978C4.51978 19.8299 3.87978 19.1899 3.87978 18.3999V17.2699H25.8498Z" fill="black"/>
</g>
<defs>
<clipPath id="clip0_648_703">
<rect width="25.85" height="19.83" fill="white"/>
</clipPath>
</defs>
</svg>
