<svg width="26" height="24" viewBox="0 0 26 24" fill="none" xmlns="http://www.w3.org/2000/svg">
<path fill-rule="evenodd" clip-rule="evenodd" d="M17.6969 13.0133L16.718 13.5649L15.209 12.2236C17.5473 9.20255 17.2618 4.97812 14.3254 2.27048C11.0355 -0.76309 5.73355 -0.750554 2.45724 2.27048C-0.819078 5.27897 -0.819078 10.1803 2.45724 13.2013C5.39368 15.9215 9.97508 16.1722 13.265 14.0161L14.6652 15.2571L14.0943 16.3101L21.6937 23.3049C21.6937 23.3049 23.3386 23.3174 24.3446 22.2644C25.3371 21.2115 25.2827 19.9955 25.2827 19.9955L17.6969 13.0008V13.0133ZM3.8303 11.9478C1.30169 9.62875 1.30169 5.8556 3.8303 3.52402C6.34531 1.19243 10.4509 1.19243 12.9795 3.52402C15.4945 5.84306 15.4945 9.62875 12.9795 11.9478C10.4509 14.2794 6.34531 14.2794 3.8303 11.9478Z" fill="white"/>
</svg>
